<svg width="64" height="20" viewBox="0 0 64 20" fill="none" xmlns="http://www.w3.org/2000/svg">
<title>Google</title>
<path fill-rule="evenodd" clip-rule="evenodd" d="M32.9624 5.38491C30.1699 5.38491 27.8906 7.50757 27.8906 10.4393C27.8906 13.3449 30.1699 15.4937 32.9624 15.4937C35.7549 15.4937 38.0342 13.3536 38.0342 10.4393C38.0342 7.50757 35.7549 5.38491 32.9624 5.38491ZM32.9626 13.5015C31.4315 13.5015 30.1092 12.2401 30.1092 10.4393C30.1092 8.62116 31.4315 7.37714 32.9626 7.37714C34.4937 7.37714 35.816 8.62116 35.816 10.4393C35.816 12.2401 34.4937 13.5015 32.9626 13.5015Z" fill="#1F1F1F"/>
<path fill-rule="evenodd" clip-rule="evenodd" d="M50.3613 15.4937H52.5449V0.208746H50.3613V15.4937Z" fill="#1F1F1F"/>
<path fill-rule="evenodd" clip-rule="evenodd" d="M59.2863 13.5015C58.1553 13.5015 57.355 12.9882 56.833 11.9704L63.5925 9.17786L63.3663 8.6037C62.9487 7.47277 61.6612 5.38491 59.0427 5.38491C56.4415 5.38491 54.2754 7.42928 54.2754 10.4393C54.2754 13.2753 56.4155 15.4937 59.2863 15.4937C61.6003 15.4937 62.94 14.0756 63.4968 13.2579L61.7743 12.1096C61.2001 12.9447 60.4172 13.5015 59.2863 13.5015ZM59.1295 7.28143C60.0255 7.28143 60.791 7.7425 61.0433 8.39495L56.4761 10.2827C56.4761 8.16007 57.9811 7.28143 59.1295 7.28143Z" fill="#1F1F1F"/>
<path fill-rule="evenodd" clip-rule="evenodd" d="M7.94258 7.12479V9.26485H13.0579C12.9013 10.4654 12.5011 11.344 11.8921 11.9617C11.144 12.7098 9.97825 13.5276 7.94258 13.5276C4.79339 13.5276 2.33145 10.9873 2.33145 7.83814C2.33145 4.68895 4.79339 2.14871 7.94258 2.14871C9.63897 2.14871 10.883 2.81857 11.7964 3.67981L13.3014 2.17481C12.0313 0.939491 10.3262 -4.76837e-05 7.94258 -4.76837e-05C3.62766 -4.76837e-05 0 3.51452 0 7.82944C0 12.1444 3.62766 15.6589 7.94258 15.6589C10.274 15.6589 12.0313 14.8934 13.4058 13.4667C14.8151 12.0574 15.2588 10.0652 15.2588 8.4645C15.2588 7.96863 15.224 7.50756 15.1457 7.12479H7.94258Z" fill="#1F1F1F"/>
<path fill-rule="evenodd" clip-rule="evenodd" d="M21.6528 5.38491C18.8603 5.38491 16.5811 7.50757 16.5811 10.4393C16.5811 13.3449 18.8603 15.4937 21.6528 15.4937C24.4453 15.4937 26.7246 13.3536 26.7246 10.4393C26.7246 7.50757 24.4453 5.38491 21.6528 5.38491ZM21.6528 13.5015C20.1217 13.5015 18.7994 12.2401 18.7994 10.4393C18.7994 8.62116 20.1217 7.37714 21.6528 7.37714C23.1839 7.37714 24.5062 8.62116 24.5062 10.4393C24.5062 12.2401 23.1839 13.5015 21.6528 13.5015Z" fill="#1F1F1F"/>
<path fill-rule="evenodd" clip-rule="evenodd" d="M46.5159 6.51588H46.4376C45.9417 5.92432 44.9848 5.38495 43.7756 5.38495C41.2527 5.38495 39.0518 7.58591 39.0518 10.4393C39.0518 13.2753 41.2527 15.4937 43.7756 15.4937C44.9848 15.4937 45.9417 14.9543 46.4376 14.3454H46.5159V15.05C46.5159 16.9813 45.4806 18.0165 43.819 18.0165C42.4619 18.0165 41.6181 17.0422 41.2701 16.2157L39.3388 17.0161C39.8956 18.3558 41.3658 20 43.819 20C46.4202 20 48.6211 18.4689 48.6211 14.7368V5.63723H46.5159V6.51588ZM43.9669 13.5015C42.4358 13.5015 41.2701 12.1966 41.2701 10.4393C41.2701 8.65596 42.4358 7.37714 43.9669 7.37714C45.4806 7.37714 46.6637 8.68205 46.6637 10.4567C46.6724 12.2227 45.4806 13.5015 43.9669 13.5015Z" fill="#1F1F1F"/>
</svg>
